<?xml version="1.0" encoding="utf-8"?>
<!-- Generator: Adobe Illustrator 27.0.0, SVG Export Plug-In . SVG Version: 6.00 Build 0)  -->
<svg version="1.1" id="Layer_1" xmlns="http://www.w3.org/2000/svg" xmlns:xlink="http://www.w3.org/1999/xlink" x="0px" y="0px"
	 viewBox="0 0 200 200" style="enable-background:new 0 0 200 200;" xml:space="preserve">
<style type="text/css">
	.st0{fill:#00B050;}
</style>
<path class="st0" d="M70.4,86.6v-42l36.4-21l36.4,21v42l-36.4,21L70.4,86.6z"/>
<path d="M146.6,88.7v-46l-39.8-23l-39.8,23v46l39.8,23L146.6,88.7L146.6,88.7z M73.9,46.7l32.9-19l32.9,19v38l-32.9,19l-32.9-19
	V46.7z"/>
<path d="M181.7,132.7c-0.9-3.5-3.6-6.2-7.3-7.4c-5.5-1.8-9.3,0.8-11.8,2.8c-8.9,7.4-18.7,13-29.2,16.5c-4.3,1.5-9.9,3.1-15.2,2.8
	c-7-0.4-14.2-2-21.1-3.5c-1.6-0.3-3.2-0.7-4.7-1c-1-0.3-1.9-0.7-2.8-1.2c0.4,0,0.8-0.1,1.2-0.1c0,0,30.6,0.1,34.6,0
	c3,0.1,5.8-1,7.9-3c2.1-2.1,3.3-4.8,3.3-7.8c0-1.3-0.2-2.4-0.4-3.4L136,127c-1.6-4.8-6-7.7-11.8-7.7H63.7c-1.7,0-3.3,0.2-5.1,0.7
	c-15.2,4-27.3,13.3-38.2,29.4l-0.2,0.4c-0.5,1.1-1.3,2.7-1.6,4.5c-1.5,6-0.1,12.1,4,16.4c4,4.3,10,5.9,16.1,4.8
	c2.5-0.5,4.7-1.2,6.8-2l0.1,0c4.4-1.8,9.2-2.2,13.8-1.3c3.7,0.7,7.5,1.5,11.1,2.3c7.4,1.6,15,3.2,22.7,4.3c6.6,1,12.8,1.5,18.8,1.5
	c2.3,0,4.6-0.1,6.8-0.2c10.3-0.8,19-6,27.3-11c11-6.6,22-14.7,32.1-24.6l0.1-0.1C181.4,141,182.7,136.6,181.7,132.7L181.7,132.7z
	 M173.2,139.7c-9.7,9.5-20,17.4-30.7,23.5l-0.1,0.1c-7.7,4.9-15.4,9.3-24.1,10c-7.5,0.5-15.4,0.1-24.1-1.3c-7.5-1.1-15-2.7-22.2-4.2
	c-3.7-0.8-7.5-1.6-11.2-2.3c-2.1-0.4-4.1-0.6-6.2-0.6c-3.9,0-7.8,0.8-11.6,2.3c-1.9,0.7-3.7,1.3-5.6,1.7l-0.1,0
	c-3.7,0.8-7.2-0.2-9.6-2.8c-2.5-2.6-3.3-6.3-2.3-10l0.1-0.4c0.1-0.9,0.6-1.9,0.9-2.4c9.9-14.4,20.7-22.8,34-26.3
	c1.3-0.3,2.3-0.4,3.4-0.4h60.5c2.7,0,4.4,0.9,5.1,2.8c0.1,0.7,0.3,1.3,0.3,1.8c0,1.1-0.4,2.1-1.2,2.8c-0.8,0.7-1.8,1.1-2.9,1.1
	l-0.1,0l-0.1,0c-3.8,0.1-7.7,0.1-11.8,0c-2,0-22.7,0-22.7,0c-1.7,0-3.5,0.2-5,0.7l-0.3,0.1c-2.3,0.9-3.9,2.6-4.2,4.8
	c-0.3,2.2,0.6,4.3,2.6,6c2,1.6,4.3,2.7,6.7,3.4l5,1.1c7.2,1.6,14.7,3.2,22.2,3.6c6.6,0.4,13-1.4,17.9-3.1
	c11.3-3.8,21.9-9.7,31.5-17.8c2.3-2,3.6-2,5.1-1.5l0.1,0c1.4,0.4,2.3,1.3,2.7,2.5C175.3,136.1,174.7,138,173.2,139.7L173.2,139.7z"
	/>
</svg>
