<?xml version="1.0" encoding="UTF-8"?>
<!-- Generator: Adobe Illustrator 27.0.1, SVG Export Plug-In . SVG Version: 6.00 Build 0)  -->
<svg xmlns="http://www.w3.org/2000/svg" xmlns:xlink="http://www.w3.org/1999/xlink" version="1.1" id="Layer_1" x="0px" y="0px" viewBox="0 0 121 90" style="enable-background:new 0 0 121 90;" xml:space="preserve">
<style type="text/css">
	.st0{fill:#FFFFFF;stroke:#333232;stroke-width:3;stroke-linecap:round;stroke-miterlimit:10;}
	.st1{fill:url(#SVGID_1_);stroke:#333232;stroke-width:2.936;stroke-miterlimit:10;}
	.st2{fill:#FFFFFF;}
</style>
<g>
	<path class="st0" d="M89.7,88.3H31.3c-7.8,0-14.1-6.3-14.1-14.1V15.8c0-7.8,6.3-14.1,14.1-14.1h58.3c7.8,0,14.1,6.3,14.1,14.1v58.3   C103.8,81.9,97.4,88.3,89.7,88.3z"></path>
	<linearGradient id="SVGID_1_" gradientUnits="userSpaceOnUse" x1="27.1887" y1="11.6887" x2="93.8213" y2="78.3213">
		<stop offset="0" style="stop-color:#01F279"></stop>
		<stop offset="0.4936" style="stop-color:#1B8E58"></stop>
		<stop offset="0.8379" style="stop-color:#2C4F43"></stop>
		<stop offset="1" style="stop-color:#32363B"></stop>
	</linearGradient>
	<path class="st1" d="M31.3,80c-3.2,0-5.9-2.6-5.9-5.9V15.8c0-3.2,2.6-5.9,5.9-5.9h58.3c3.2,0,5.9,2.6,5.9,5.9v58.3   c0,3.2-2.6,5.9-5.9,5.9H31.3z"></path>
	<g>
		<g>
			<path class="st2" d="M45.4,36.9h9L53,42.3c-0.2,0.7-0.6,1.3-1.2,1.8c-0.6,0.5-1.3,0.7-2,0.7h-4.2c-1,0-1.8,0.3-2.5,0.8     c-0.7,0.6-1.2,1.3-1.5,2.3c-0.2,0.7-0.2,1.4-0.1,2c0.2,0.6,0.4,1.2,0.8,1.7c0.4,0.5,0.8,0.9,1.4,1.2c0.6,0.3,1.2,0.4,1.9,0.4h2.5     c0.5,0,0.9,0.2,1.2,0.6c0.3,0.4,0.4,0.8,0.3,1.3L48,60.9h-2.8c-1.9,0-3.7-0.4-5.3-1.2c-1.6-0.8-2.9-1.9-4-3.3s-1.8-3-2.2-4.7     c-0.4-1.8-0.3-3.6,0.1-5.4l0.2-0.6c0.3-1.3,0.9-2.5,1.6-3.5s1.6-2,2.6-2.7c1-0.8,2.1-1.3,3.3-1.8C42.8,37.1,44,36.9,45.4,36.9z"></path>
			<path class="st2" d="M49.9,60.9l7.8-29.3c0.2-0.7,0.6-1.3,1.2-1.8c0.6-0.5,1.3-0.7,2-0.7h8.3c1.9,0,3.7,0.4,5.3,1.2     c1.6,0.8,2.9,1.9,4,3.3s1.8,3,2.2,4.7s0.3,3.6-0.2,5.4l-0.2,0.6c-0.3,1.3-0.9,2.5-1.6,3.5c-0.7,1.1-1.6,2-2.6,2.8     c-1,0.8-2.1,1.4-3.3,1.8c-1.2,0.4-2.5,0.6-3.8,0.6h-7.2l1.4-5.4c0.2-0.7,0.6-1.3,1.2-1.8c0.6-0.5,1.3-0.7,2-0.7h2.3     c0.9,0,1.8-0.3,2.6-0.9c0.8-0.6,1.2-1.3,1.5-2.3c0.2-0.7,0.2-1.3,0.1-2s-0.4-1.2-0.8-1.7c-0.4-0.5-0.8-0.9-1.4-1.2     s-1.2-0.5-1.9-0.5h-4.4l-5.8,21.6c-0.2,0.7-0.6,1.3-1.2,1.8c-0.6,0.5-1.2,0.7-2,0.7H49.9z"></path>
		</g>
		<g>
			<path class="st2" d="M81.3,33.4h-0.5v-3.8h-1.3v-0.4h3.2v0.4h-1.3C81.4,29.6,81.4,33.4,81.3,33.4z"></path>
			<path class="st2" d="M85.2,33.4l-1.4-3.8h0c0,0.3,0,0.6,0,1.1v2.7h-0.4v-4.2h0.7l1.3,3.5h0l1.3-3.5h0.7v4.2H87v-2.7     c0-0.3,0-0.6,0-1h0l-1.4,3.7C85.6,33.4,85.2,33.4,85.2,33.4z"></path>
		</g>
	</g>
</g>
</svg>
