<?xml version="1.0" encoding="UTF-8"?>
<!-- Generator: Adobe Illustrator 27.0.1, SVG Export Plug-In . SVG Version: 6.00 Build 0)  -->
<svg xmlns="http://www.w3.org/2000/svg" xmlns:xlink="http://www.w3.org/1999/xlink" version="1.1" id="Layer_1" x="0px" y="0px" viewBox="0 0 121 90" style="enable-background:new 0 0 121 90;" xml:space="preserve">
<style type="text/css">
	.st0{fill:#FFFFFF;stroke:#333232;stroke-width:3;stroke-linecap:round;stroke-miterlimit:10;}
	.st1{fill:none;stroke:#333232;stroke-width:3;stroke-linecap:round;stroke-miterlimit:10;}
	.st2{fill:url(#SVGID_1_);}
</style>
<g>
	<g>
		<g>
			<path class="st0" d="M8.7,57.9v14.9c0,2.1,1.7,3.8,3.8,3.8h96.1c2.1,0,3.8-1.7,3.8-3.8V57.9H8.7z"></path>
			<line class="st1" x1="38.6" y1="88.3" x2="82.4" y2="88.3"></line>
			<path class="st0" d="M112.3,57.7V5.5c0-2.1-1.7-3.8-3.8-3.8H12.5c-2.1,0-3.8,1.7-3.8,3.8v52.2C8.7,57.7,112.3,57.7,112.3,57.7z"></path>
		</g>
		<rect x="46.8" y="76.7" class="st0" width="27.3" height="11.6"></rect>
	</g>
	<linearGradient id="SVGID_1_" gradientUnits="userSpaceOnUse" x1="36.7285" y1="3.7793" x2="91.2265" y2="58.2773">
		<stop offset="0" style="stop-color:#01F279"></stop>
		<stop offset="0.4936" style="stop-color:#1B8E58"></stop>
		<stop offset="0.8379" style="stop-color:#2C4F43"></stop>
		<stop offset="1" style="stop-color:#32363B"></stop>
	</linearGradient>
	<path class="st2" d="M59,30.1c0,0.8-0.7,1.5-1.5,1.5h-8l-1.8-4.2L43.9,38l-2.6-6.3l-5.2,17.6l-6.6-28l-3.6,10.4h-8   c-0.8,0-1.5-0.7-1.5-1.5s0.7-1.5,1.5-1.5h5.9L30,10.5l6.4,27.1l4.4-14.9l2.9,7l3.7-10.2l4.1,9.2h6C58.4,28.6,59,29.3,59,30.1z    M74.3,19.4h-3.8v10.8h3.8V19.4z M99.7,19.4h-3.8v10.8h3.8V19.4z M80.7,17.1h-3.8v13.1h3.8V17.1z M89.5,30.2h3.8V17.1h-3.8V30.2z    M87,12.7h-3.8v17.5H87V12.7z M85.1,37.1c-3,0-5.5,2.5-5.5,5.5s2.5,5.5,5.5,5.5s5.5-2.5,5.5-5.5S88.1,37.1,85.1,37.1z M104.6,42.6   c0,3-2.5,5.5-5.5,5.5s-5.5-2.5-5.5-5.5s2.5-5.5,5.5-5.5S104.6,39.6,104.6,42.6z M101.6,42.6c0-1.4-1.1-2.5-2.5-2.5   s-2.5,1.1-2.5,2.5s1.1,2.5,2.5,2.5S101.6,44,101.6,42.6z M76.6,42.6c0,3-2.5,5.5-5.5,5.5s-5.5-2.5-5.5-5.5s2.5-5.5,5.5-5.5   S76.6,39.6,76.6,42.6z M73.6,42.6c0-1.4-1.1-2.5-2.5-2.5s-2.5,1.1-2.5,2.5s1.1,2.5,2.5,2.5S73.6,44,73.6,42.6z"></path>
</g>
</svg>
