<?xml version="1.0" encoding="UTF-8"?>
<!-- Generator: Adobe Illustrator 27.0.1, SVG Export Plug-In . SVG Version: 6.00 Build 0)  -->
<svg xmlns="http://www.w3.org/2000/svg" xmlns:xlink="http://www.w3.org/1999/xlink" version="1.1" id="Layer_1" x="0px" y="0px" viewBox="0 0 121 90" style="enable-background:new 0 0 121 90;" xml:space="preserve">
<style type="text/css">
	.st0{fill:#FFFFFF;stroke:#333232;stroke-width:3;stroke-linecap:round;stroke-miterlimit:10;}
	.st1{fill:url(#SVGID_1_);}
</style>
<g>
	<g>
		<g id="Layer_1-2">
			<path class="st0" d="M94.2,19.5L65.7,3.1c-3.2-1.9-7.2-1.9-10.5,0L26.8,19.5c-3.2,1.9-5.2,5.3-5.2,9.1v32.8c0,3.8,2,7.2,5.2,9.1     l28.4,16.4c3.2,1.9,7.2,1.9,10.5,0l28.4-16.4c3.3-1.9,5.3-5.3,5.2-9.1V28.6C99.4,24.9,97.4,21.4,94.2,19.5z"></path>
		</g>
	</g>
	<linearGradient id="SVGID_1_" gradientUnits="userSpaceOnUse" x1="41.0244" y1="27.6381" x2="73.9319" y2="60.5456">
		<stop offset="0" style="stop-color:#01F279"></stop>
		<stop offset="0.4936" style="stop-color:#1B8E58"></stop>
		<stop offset="0.8379" style="stop-color:#2C4F43"></stop>
		<stop offset="1" style="stop-color:#32363B"></stop>
	</linearGradient>
	<path class="st1" d="M86.6,43.7c-1.4,1.4-3.7,1.4-5.2,0c0,0,0,0,0,0l-1.6-1.6V45c0,12.8-10.4,23.3-23.3,23.3S33.3,57.9,33.3,45   s10.4-23.3,23.3-23.3c2,0.1,3.6,1.8,3.5,3.8c-0.1,1.9-1.6,3.4-3.5,3.5c-8.8,0-15.9,7.1-15.9,15.9c0,0.9,0.1,1.7,0.2,2.6   c1.4,8.7,9.6,14.6,18.3,13.2c7.7-1.2,13.4-7.9,13.4-15.8v-2.9l-1.6,1.6c-1.4,1.4-3.8,1.4-5.2,0s-1.4-3.8,0-5.2l7.8-7.8   c1.4-1.4,3.8-1.4,5.2,0l7.8,7.8C88,39.9,88,42.2,86.6,43.7C86.6,43.7,86.6,43.7,86.6,43.7z"></path>
</g>
</svg>
